<svg width="59" height="26" viewBox="0 0 59 26" fill="none" xmlns="http://www.w3.org/2000/svg">
<path d="M0.96875 25V0.9375H5.31641C6.54688 0.9375 7.49935 1.11979 8.17383 1.48438C8.84831 1.84896 9.32227 2.42773 9.5957 3.2207C9.86914 4.01367 10.0104 5.05729 10.0195 6.35156V6.87109C10.0195 8.21094 9.89193 9.30469 9.63672 10.1523C9.39062 10.9909 8.91211 11.597 8.20117 11.9707C8.77539 12.1986 9.22201 12.5951 9.54102 13.1602C9.86003 13.7253 10.0833 14.4043 10.2109 15.1973C10.3477 15.9902 10.416 16.8424 10.416 17.7539V18.2598C10.3978 19.8275 10.2383 21.1081 9.9375 22.1016C9.64583 23.0951 9.1582 23.8288 8.47461 24.3027C7.79102 24.7676 6.85677 25 5.67188 25H0.96875ZM3.79883 22.7168H5.53516C6.07292 22.7168 6.48763 22.5846 6.7793 22.3203C7.07096 22.056 7.27604 21.5957 7.39453 20.9395C7.51302 20.2741 7.57227 19.3535 7.57227 18.1777V17.3438C7.57227 15.8581 7.45378 14.7917 7.2168 14.1445C6.97982 13.4883 6.4694 13.1602 5.68555 13.1602H3.79883V22.7168ZM3.79883 10.9863H5.39844C5.78125 10.9863 6.09115 10.9453 6.32812 10.8633C6.5651 10.7721 6.7474 10.5944 6.875 10.3301C7.01172 10.0658 7.10286 9.67383 7.14844 9.1543C7.19401 8.63477 7.2168 7.9375 7.2168 7.0625V6.39258C7.2168 5.48112 7.14844 4.80208 7.01172 4.35547C6.875 3.90885 6.65625 3.61263 6.35547 3.4668C6.0638 3.32096 5.67643 3.24805 5.19336 3.24805H3.79883V10.9863ZM21.0281 25.2734C20.4174 25.2734 19.8523 25.123 19.3328 24.8223C18.8133 24.5215 18.394 24.0384 18.075 23.373C17.756 22.6986 17.5965 21.819 17.5965 20.7344V4.49219H20.3992V20.4199C20.3992 21.2129 20.5405 21.8145 20.823 22.2246C21.1056 22.6348 21.5522 22.8398 22.1629 22.8398C22.8374 22.8398 23.3341 22.6074 23.6531 22.1426C23.9813 21.6686 24.1453 21.0716 24.1453 20.3516V4.49219H26.9617V25H24.1453V22.9082C23.9448 23.5462 23.5848 24.1022 23.0652 24.5762C22.5457 25.041 21.8667 25.2734 21.0281 25.2734ZM35.0582 25V4.49219H37.8609V6.66602C38.0432 6.02799 38.4306 5.46289 39.023 4.9707C39.6246 4.47852 40.3401 4.23242 41.1695 4.23242C42.1995 4.23242 43.0016 4.59701 43.5758 5.32617C44.15 6.05534 44.4371 7.16276 44.4371 8.64844V25H41.6344V8.66211C41.6344 7.93294 41.4703 7.4043 41.1422 7.07617C40.8141 6.74805 40.3948 6.58398 39.8844 6.58398C39.5107 6.58398 39.1689 6.66602 38.859 6.83008C38.5491 6.99414 38.303 7.24935 38.1207 7.5957C37.9475 7.94206 37.8609 8.38867 37.8609 8.93555V25H35.0582ZM56.1156 25.123C55.2406 25.123 54.5798 25.0182 54.1332 24.8086C53.6866 24.599 53.3858 24.2617 53.2309 23.7969C53.0759 23.332 52.9984 22.7168 52.9984 21.9512V6.73438H51.1254V4.65625H52.9984V0.9375H55.8012V4.65625H58.016V6.73438H55.8012V21.7051C55.8012 22.0514 55.8467 22.3112 55.9379 22.4844C56.029 22.6484 56.2341 22.7578 56.5531 22.8125C56.8721 22.8672 57.3689 22.8945 58.0434 22.8945V25.123H56.1156Z" fill="#222222"/>
</svg>
