<svg width="19" height="21" viewBox="0 0 19 21" fill="none" xmlns="http://www.w3.org/2000/svg">
<path d="M0.25 17V3.5C0.25 1.84315 1.59315 0.5 3.25 0.5H17.25C17.8023 0.5 18.25 0.94772 18.25 1.5V19.5C18.25 20.0523 17.8023 20.5 17.25 20.5H3.75C1.817 20.5 0.25 18.933 0.25 17ZM16.25 18.5V15.5H3.75C2.92157 15.5 2.25 16.1716 2.25 17C2.25 17.8284 2.92157 18.5 3.75 18.5H16.25ZM2.25 13.8368C2.70463 13.6208 3.2132 13.5 3.75 13.5H16.25V2.5H3.25C2.69772 2.5 2.25 2.94772 2.25 3.5V13.8368Z" fill="black"/>
</svg>
